<svg version="1.1" id="Layer_1" xmlns="http://www.w3.org/2000/svg" xmlns:xlink="http://www.w3.org/1999/xlink" x="0px" y="0px"
	 width="250.193px" height="252.83px" viewBox="0 0 250.193 252.83" enable-background="new 0 0 250.193 252.83"
	 xml:space="preserve">
<path fill="#0D4DFF" d="M207.539,214.449c22.521-21.38,36.565-51.603,36.565-85.107c0-64.801-52.533-117.334-117.334-117.334
	C61.967,12.007,9.435,64.54,9.435,129.341c0,64.803,52.533,117.336,117.335,117.336c19.872,0,38.587-4.949,54.991-13.668
	l43.103,11.751L207.539,214.449z"/>
<g>
	<defs>
		<path id="SVGID_1_" d="M204.193,208.595c22.521-21.38,36.565-51.603,36.565-85.107c0-64.802-52.532-117.334-117.334-117.334
			C58.622,6.153,6.089,58.686,6.089,123.488c0,64.802,52.533,117.335,117.335,117.335c19.873,0,38.587-4.948,54.992-13.667
			l43.101,11.751L204.193,208.595z"/>
	</defs>
	<clipPath id="SVGID_2_">
		<use xlink:href="#SVGID_1_"  overflow="visible"/>
	</clipPath>
	<linearGradient id="SVGID_3_" gradientUnits="userSpaceOnUse" x1="-82.959" y1="298.6904" x2="246.0923" y2="-30.3608">
		<stop  offset="0" style="stop-color:#00FFA9"/>
		<stop  offset="1" style="stop-color:#0D4DFF"/>
	</linearGradient>
	<path clip-path="url(#SVGID_2_)" fill="url(#SVGID_3_)" d="M288.717,256.064h-414.302V27.361c0-20.129,16.32-36.449,36.453-36.449
		h341.4c20.13,0,36.449,16.32,36.449,36.449V256.064z"/>
</g>
<g>
	<path fill="#FFFFFF" d="M134.951,132.314c-1.852,1.029-3.294,2.471-3.294,3.912c0,2.884,0.206,7.002,0.617,12.356
		c-4.118,1.647-11.943,3.5-21.622,4.119c-3.088-4.53-7.824-15.444-8.031-23.27c21.416-14.826,30.684-22.446,30.684-36.861
		c0-9.266-6.384-14.62-13.179-14.62c-3.296,0-6.59,0.618-9.062,2.471c-0.823,0.618-1.235,1.029-1.441,2.265l-4.943,16.886
		c-7.207-0.618-14.619-1.442-21.209-2.471c0.823-10.503,1.442-21.622,2.265-32.743c8.032-3.912,25.535-7.001,41.598-7.001
		c25.739,0,43.655,11.326,43.655,32.124C170.988,109.456,157.396,120.782,134.951,132.314z M138.245,179.883
		c0,9.06-7.001,15.444-17.709,15.444c-8.649,0-16.68-6.178-16.68-15.239c0-9.061,7.414-16.68,17.709-16.68
		C131.45,163.409,138.245,169.998,138.245,179.883z"/>
</g>
</svg>